<svg aria-hidden="true" style="position: absolute; width: 0; height: 0; overflow: hidden;" version="1.1" xmlns="http://www.w3.org/2000/svg" xmlns:xlink="http://www.w3.org/1999/xlink">
<defs>
<symbol id="icon-clarity_close-line-1" viewBox="0 0 32 32">
<path d="M17.253 16l7.37-7.369c0.138-0.156 0.223-0.362 0.223-0.588 0-0.49-0.398-0.888-0.888-0.888-0.226 0-0.433 0.085-0.59 0.224l0.001-0.001-7.369 7.369-7.369-7.378c-0.164-0.183-0.401-0.297-0.665-0.297-0.493 0-0.893 0.4-0.893 0.893 0 0.264 0.114 0.501 0.296 0.664l0.001 0.001 7.377 7.37-7.378 7.369c-0.198 0.164-0.323 0.411-0.323 0.686 0 0.492 0.398 0.89 0.89 0.89 0.275 0 0.522-0.125 0.685-0.322l0.001-0.001 7.378-7.369 7.369 7.37c0.154 0.133 0.357 0.214 0.578 0.214 0.491 0 0.889-0.398 0.889-0.889 0-0.221-0.081-0.424-0.215-0.58l0.001 0.001-7.369-7.37z"></path>
</symbol>
<symbol id="icon-ep_arrow-up-1" viewBox="0 0 32 32">
<path d="M16.724 21.24l10.62-11.147c0.171-0.179 0.276-0.422 0.276-0.689s-0.105-0.51-0.276-0.69l0 0-0.012-0.013c-0.168-0.176-0.404-0.286-0.667-0.286s-0.499 0.11-0.666 0.286l-0 0-10 10.497-9.996-10.496c-0.168-0.177-0.405-0.287-0.667-0.287s-0.499 0.11-0.667 0.286l-0 0-0.012 0.012c-0.171 0.179-0.276 0.422-0.276 0.69s0.105 0.511 0.277 0.69l-0-0 10.62 11.147c0.182 0.191 0.439 0.31 0.724 0.31s0.541-0.119 0.724-0.31l0-0z"></path>
</symbol>
<symbol id="icon-Logo-1" viewBox="0 0 110 32">
<path fill="#000" style="fill: var(--color1, #000)" d="M72.206 0h26.708v23.194h-26.708z"></path>
<path fill="#fd5103" style="fill: var(--color2, #fd5103)" d="M0.841 24.307c0-1.33 0.3-2.523 0.9-3.579 0.584-1.048 1.414-1.897 2.414-2.486l0.031-0.017c1.043-0.599 2.196-0.9 3.461-0.9 1.486 0 2.783 0.359 3.892 1.076s1.916 1.734 2.425 3.051h-2.132c-0.378-0.821-0.925-1.453-1.643-1.897-0.704-0.443-1.551-0.665-2.542-0.665-0.951 0-1.805 0.222-2.562 0.665-0.756 0.444-1.349 1.076-1.78 1.897-0.43 0.809-0.645 1.76-0.645 2.855 0 1.083 0.215 2.034 0.645 2.855 0.43 0.809 1.023 1.435 1.78 1.877 0.756 0.444 1.61 0.665 2.562 0.665 0.991 0 1.838-0.215 2.542-0.645 0.717-0.443 1.265-1.076 1.643-1.897h2.132c-0.508 1.304-1.316 2.315-2.425 3.031-1.108 0.704-2.405 1.056-3.892 1.056-1.265 0-2.418-0.293-3.461-0.88-1.028-0.603-1.857-1.444-2.427-2.451l-0.017-0.033c-0.6-1.056-0.9-2.249-0.9-3.579zM23.182 31.268c-1.264 0-2.418-0.293-3.461-0.88-1.040-0.602-1.882-1.443-2.466-2.452l-0.017-0.032c-0.599-1.068-0.9-2.268-0.9-3.598s0.3-2.523 0.9-3.579c0.613-1.068 1.44-1.897 2.484-2.484 1.044-0.599 2.196-0.9 3.461-0.9 1.278 0 2.438 0.3 3.481 0.9 1.039 0.588 1.876 1.425 2.447 2.432l0.017 0.032c0.6 1.056 0.9 2.256 0.9 3.598s-0.3 2.542-0.9 3.598c-0.591 1.043-1.427 1.885-2.433 2.467l-0.031 0.017c-1.043 0.587-2.204 0.88-3.481 0.88zM23.182 29.724c0.951 0 1.806-0.221 2.562-0.665 0.77-0.443 1.369-1.076 1.799-1.897 0.444-0.821 0.665-1.772 0.665-2.855 0-1.095-0.222-2.046-0.665-2.855-0.43-0.821-1.023-1.453-1.78-1.897s-1.617-0.665-2.581-0.665-1.825 0.222-2.581 0.665c-0.756 0.444-1.356 1.076-1.799 1.897-0.43 0.809-0.645 1.76-0.645 2.855 0 1.083 0.215 2.034 0.645 2.855 0.444 0.821 1.044 1.454 1.799 1.897 0.77 0.444 1.63 0.665 2.581 0.665zM32.102 24.307c0-1.33 0.3-2.523 0.9-3.579 0.584-1.048 1.413-1.897 2.414-2.486l0.031-0.017c1.043-0.599 2.196-0.9 3.461-0.9 1.486 0 2.783 0.359 3.892 1.076s1.916 1.734 2.425 3.051h-2.131c-0.378-0.821-0.925-1.453-1.643-1.897-0.704-0.443-1.551-0.665-2.542-0.665-0.951 0-1.805 0.222-2.562 0.665-0.756 0.444-1.349 1.076-1.78 1.897-0.43 0.809-0.645 1.76-0.645 2.855 0 1.083 0.215 2.034 0.645 2.855 0.43 0.809 1.023 1.435 1.78 1.877 0.756 0.444 1.61 0.665 2.562 0.665 0.991 0 1.838-0.215 2.542-0.645 0.717-0.443 1.265-1.076 1.643-1.897h2.132c-0.508 1.304-1.316 2.315-2.425 3.031-1.108 0.704-2.405 1.056-3.892 1.056-1.265 0-2.418-0.293-3.461-0.88-1.028-0.603-1.857-1.444-2.427-2.451l-0.017-0.033c-0.6-1.056-0.9-2.249-0.9-3.579zM55.656 31.132l-5.612-6.219v6.219h-1.78v-13.629h1.78v6.316l5.632-6.316h2.249l-6.18 6.825 6.238 6.805h-2.327zM68.751 17.502v1.447h-3.716v12.183h-1.78v-12.184h-3.735v-1.446h9.23zM79.39 28.101h-5.945l-1.096 3.031h-1.877l4.928-13.552h2.053l4.908 13.552h-1.876l-1.096-3.031zM78.882 26.654l-2.465-6.884-2.463 6.884h4.928zM86.681 17.502v13.63h-1.78v-13.63h1.78zM91.884 29.685h4.772v1.447h-6.551v-13.63h1.78v12.183zM103.259 31.269c-0.9 0-1.708-0.156-2.425-0.469-0.704-0.325-1.258-0.769-1.662-1.33-0.404-0.573-0.612-1.232-0.626-1.975h1.897c0.065 0.64 0.326 1.18 0.782 1.623 0.469 0.43 1.148 0.645 2.034 0.645 0.847 0 1.512-0.208 1.995-0.626 0.495-0.43 0.743-0.978 0.743-1.643 0-0.521-0.143-0.945-0.43-1.271-0.289-0.324-0.649-0.578-1.057-0.737l-0.019-0.006c-0.43-0.169-1.011-0.352-1.74-0.548-0.9-0.235-1.623-0.469-2.171-0.704-0.559-0.254-1.025-0.626-1.382-1.087l-0.006-0.008c-0.378-0.508-0.567-1.186-0.567-2.034 0-0.743 0.189-1.401 0.567-1.975s0.906-1.017 1.584-1.33c0.691-0.313 1.48-0.469 2.366-0.469 1.277 0 2.321 0.32 3.129 0.958 0.821 0.64 1.284 1.486 1.388 2.542h-1.956c-0.065-0.521-0.339-0.978-0.821-1.369-0.483-0.404-1.121-0.606-1.916-0.606-0.743 0-1.349 0.196-1.819 0.587-0.469 0.379-0.704 0.913-0.704 1.604 0 0.496 0.137 0.9 0.411 1.212 0.283 0.308 0.629 0.553 1.017 0.716l0.019 0.007c0.417 0.156 0.997 0.34 1.74 0.548 0.9 0.249 1.623 0.496 2.171 0.743 0.571 0.252 1.045 0.632 1.402 1.106l0.006 0.009c0.391 0.496 0.587 1.173 0.587 2.034 0 0.665-0.176 1.291-0.528 1.877s-0.874 1.063-1.564 1.428c-0.691 0.365-1.506 0.548-2.444 0.548z"></path>
<path fill="#000" style="fill: var(--color1, #000)" d="M85.561 14.759l-7.028-7.028h14.057l-7.028 7.028z"></path>
</symbol>
<symbol id="icon-menu-1" viewBox="0 0 60 32">
<path d="M2 0h56c1.105 0 2 0.895 2 2s-0.895 2-2 2h-56c-1.105 0-2-0.895-2-2s0.895-2 2-2z"></path>
<path d="M2 14h56c1.105 0 2 0.895 2 2s-0.895 2-2 2h-56c-1.105 0-2-0.895-2-2s0.895-2 2-2z"></path>
<path d="M2 28h56c1.105 0 2 0.895 2 2s-0.895 2-2 2h-56c-1.105 0-2-0.895-2-2s0.895-2 2-2z"></path>
</symbol>
</defs>
</svg>
